<?xml version="1.0" encoding="utf-8"?>
<!-- Generator: Adobe Illustrator 16.0.0, SVG Export Plug-In . SVG Version: 6.00 Build 0)  -->
<!DOCTYPE svg PUBLIC "-//W3C//DTD SVG 1.1//EN" "http://www.w3.org/Graphics/SVG/1.1/DTD/svg11.dtd">
<svg version="1.1" id="Layer_1" xmlns="http://www.w3.org/2000/svg" xmlns:xlink="http://www.w3.org/1999/xlink" x="0px" y="0px"
	 width="260px" height="30px" viewBox="0 0 260 30" enable-background="new 0 0 260 30" xml:space="preserve">
<g>
	<g>
		<linearGradient id="SVGID_1_" gradientUnits="userSpaceOnUse" x1="0.5781" y1="14.6973" x2="255.5059" y2="14.6973">
			<stop  offset="0" style="stop-color:#4867C0"/>
			<stop  offset="1" style="stop-color:#329FEC"/>
		</linearGradient>
		<path fill="url(#SVGID_1_)" d="M20.298,5.687h-8.33v21.42h-3.06V5.687h-8.33v-2.72h19.72V5.687z"/>
		<linearGradient id="SVGID_2_" gradientUnits="userSpaceOnUse" x1="0.5781" y1="14.6973" x2="255.5059" y2="14.6973">
			<stop  offset="0" style="stop-color:#4867C0"/>
			<stop  offset="1" style="stop-color:#329FEC"/>
		</linearGradient>
		<path fill="url(#SVGID_2_)" d="M38.692,27.107H35.7v-9.929c0-1.836-0.318-3.201-0.952-4.097c-0.635-0.895-1.564-1.343-2.788-1.343
			c-0.59,0-1.179,0.119-1.768,0.357c-0.59,0.238-1.139,0.561-1.649,0.969s-0.964,0.896-1.36,1.462
			c-0.397,0.567-0.697,1.19-0.901,1.87v10.711H23.29V2.287h2.992v10.88c0.703-1.292,1.655-2.3,2.856-3.026
			c1.201-0.725,2.516-1.088,3.944-1.088c1.042,0,1.926,0.193,2.652,0.578c0.725,0.386,1.303,0.907,1.734,1.564
			c0.431,0.658,0.742,1.445,0.935,2.363c0.192,0.918,0.289,1.898,0.289,2.941V27.107z"/>
		<linearGradient id="SVGID_3_" gradientUnits="userSpaceOnUse" x1="0.5781" y1="14.6973" x2="255.5059" y2="14.6973">
			<stop  offset="0" style="stop-color:#4867C0"/>
			<stop  offset="1" style="stop-color:#329FEC"/>
		</linearGradient>
		<path fill="url(#SVGID_3_)" d="M51.204,27.447c-1.338,0-2.562-0.244-3.672-0.731c-1.111-0.487-2.063-1.149-2.856-1.989
			c-0.794-0.838-1.411-1.818-1.853-2.94c-0.442-1.122-0.663-2.306-0.663-3.554c0-1.246,0.221-2.425,0.663-3.536
			c0.442-1.11,1.065-2.085,1.87-2.924c0.805-0.838,1.762-1.501,2.873-1.989c1.11-0.487,2.334-0.731,3.672-0.731
			s2.556,0.25,3.655,0.748c1.099,0.499,2.034,1.162,2.805,1.989c0.77,0.828,1.365,1.791,1.785,2.89s0.629,2.238,0.629,3.417
			c0,0.249-0.006,0.475-0.017,0.68c-0.012,0.203-0.029,0.362-0.051,0.476H45.322c0.068,0.884,0.272,1.688,0.612,2.414
			s0.782,1.349,1.326,1.87c0.544,0.521,1.161,0.93,1.853,1.224c0.691,0.295,1.422,0.442,2.193,0.442
			c0.544,0,1.076-0.074,1.598-0.221c0.521-0.147,1.008-0.346,1.462-0.596c0.453-0.249,0.855-0.555,1.207-0.918
			c0.351-0.362,0.617-0.77,0.799-1.224l2.584,0.714c-0.295,0.658-0.697,1.258-1.207,1.802c-0.51,0.544-1.1,1.015-1.768,1.411
			c-0.669,0.396-1.411,0.709-2.227,0.936C52.938,27.333,52.088,27.447,51.204,27.447z M57.29,17.043
			c-0.068-0.838-0.278-1.615-0.629-2.329c-0.352-0.714-0.794-1.32-1.326-1.819c-0.533-0.499-1.15-0.889-1.853-1.173
			c-0.703-0.283-1.451-0.425-2.244-0.425s-1.542,0.142-2.244,0.425c-0.703,0.284-1.321,0.68-1.853,1.19
			c-0.533,0.51-0.964,1.117-1.292,1.819c-0.329,0.703-0.527,1.474-0.595,2.312H57.29z"/>
		<linearGradient id="SVGID_4_" gradientUnits="userSpaceOnUse" x1="0.5781" y1="14.6973" x2="255.5059" y2="14.6973">
			<stop  offset="0" style="stop-color:#4867C0"/>
			<stop  offset="1" style="stop-color:#329FEC"/>
		</linearGradient>
		<path fill="url(#SVGID_4_)" d="M70.958,14.867c0-1.45,0.255-2.895,0.765-4.335c0.51-1.439,1.258-2.731,2.244-3.876
			c0.986-1.144,2.193-2.068,3.621-2.771c1.428-0.702,3.048-1.054,4.862-1.054c2.153,0,4,0.488,5.542,1.462
			c1.542,0.975,2.686,2.244,3.434,3.808l-2.414,1.564c-0.363-0.771-0.799-1.417-1.309-1.938c-0.51-0.521-1.065-0.94-1.666-1.258
			c-0.601-0.317-1.218-0.544-1.853-0.68c-0.635-0.136-1.258-0.204-1.87-0.204c-1.338,0-2.522,0.278-3.553,0.833
			c-1.032,0.556-1.898,1.281-2.601,2.176c-0.703,0.896-1.229,1.904-1.581,3.026c-0.352,1.122-0.527,2.25-0.527,3.383
			c0,1.27,0.209,2.477,0.629,3.621s1.003,2.159,1.751,3.043s1.632,1.587,2.652,2.108s2.13,0.781,3.332,0.781
			c0.634,0,1.286-0.079,1.955-0.238c0.668-0.158,1.309-0.412,1.921-0.765c0.612-0.351,1.184-0.793,1.717-1.325
			c0.532-0.533,0.969-1.174,1.309-1.922l2.55,1.395c-0.386,0.906-0.924,1.705-1.615,2.396c-0.692,0.691-1.474,1.275-2.346,1.752
			c-0.873,0.475-1.796,0.838-2.771,1.088c-0.975,0.248-1.927,0.373-2.856,0.373c-1.655,0-3.174-0.361-4.556-1.088
			c-1.383-0.725-2.579-1.671-3.587-2.839c-1.009-1.167-1.791-2.493-2.346-3.978C71.235,17.922,70.958,16.408,70.958,14.867z"/>
		<linearGradient id="SVGID_5_" gradientUnits="userSpaceOnUse" x1="0.5781" y1="14.6973" x2="255.5059" y2="14.6973">
			<stop  offset="0" style="stop-color:#4867C0"/>
			<stop  offset="1" style="stop-color:#329FEC"/>
		</linearGradient>
		<path fill="url(#SVGID_5_)" d="M102.985,27.447c-1.338,0-2.556-0.25-3.655-0.748c-1.1-0.498-2.04-1.168-2.822-2.006
			c-0.782-0.839-1.389-1.813-1.819-2.924c-0.431-1.111-0.646-2.279-0.646-3.502c0-1.247,0.221-2.426,0.663-3.537
			c0.442-1.11,1.054-2.085,1.836-2.924c0.782-0.838,1.722-1.507,2.822-2.006c1.099-0.498,2.306-0.748,3.621-0.748
			c1.314,0,2.527,0.25,3.638,0.748c1.11,0.499,2.057,1.168,2.839,2.006c0.782,0.839,1.394,1.813,1.836,2.924
			c0.442,1.111,0.663,2.29,0.663,3.537c0,1.223-0.216,2.391-0.646,3.502c-0.431,1.11-1.043,2.085-1.836,2.924
			c-0.794,0.838-1.74,1.508-2.839,2.006C105.54,27.197,104.322,27.447,102.985,27.447z M97.103,18.301
			c0,0.93,0.153,1.791,0.459,2.584c0.306,0.794,0.725,1.484,1.258,2.074c0.532,0.59,1.156,1.054,1.87,1.395
			c0.714,0.34,1.479,0.51,2.295,0.51s1.581-0.17,2.295-0.51c0.714-0.341,1.343-0.811,1.887-1.412c0.544-0.6,0.969-1.303,1.275-2.107
			s0.459-1.672,0.459-2.602c0-0.906-0.153-1.762-0.459-2.566c-0.306-0.804-0.731-1.507-1.275-2.108s-1.173-1.071-1.887-1.411
			s-1.479-0.51-2.295-0.51s-1.581,0.176-2.295,0.527c-0.714,0.352-1.338,0.828-1.87,1.428c-0.533,0.601-0.952,1.304-1.258,2.108
			C97.256,16.505,97.103,17.371,97.103,18.301z"/>
		<linearGradient id="SVGID_6_" gradientUnits="userSpaceOnUse" x1="0.5781" y1="14.6973" x2="255.5059" y2="14.6973">
			<stop  offset="0" style="stop-color:#4867C0"/>
			<stop  offset="1" style="stop-color:#329FEC"/>
		</linearGradient>
		<path fill="url(#SVGID_6_)" d="M131,27.107h-2.992v-9.929c0-1.904-0.289-3.286-0.867-4.148c-0.578-0.861-1.457-1.292-2.635-1.292
			c-0.611,0-1.224,0.119-1.836,0.357c-0.612,0.238-1.19,0.561-1.734,0.969s-1.02,0.896-1.428,1.462
			c-0.408,0.567-0.714,1.19-0.918,1.87v10.711h-2.992V9.359h2.72v3.808c0.703-1.247,1.717-2.244,3.043-2.992
			c1.326-0.748,2.772-1.122,4.334-1.122c1.021,0,1.871,0.187,2.551,0.561s1.225,0.896,1.633,1.564
			c0.406,0.669,0.695,1.457,0.865,2.363c0.172,0.907,0.255,1.893,0.255,2.958V27.107z"/>
		<linearGradient id="SVGID_7_" gradientUnits="userSpaceOnUse" x1="0.5781" y1="14.6973" x2="255.5059" y2="14.6973">
			<stop  offset="0" style="stop-color:#4867C0"/>
			<stop  offset="1" style="stop-color:#329FEC"/>
		</linearGradient>
		<path fill="url(#SVGID_7_)" d="M136.611,27.107V11.705h-2.414V9.359h2.414V8.985c0-2.198,0.486-3.921,1.461-5.168
			c0.975-1.246,2.301-1.87,3.979-1.87c0.703,0,1.395,0.097,2.074,0.289c0.68,0.193,1.291,0.459,1.836,0.799l-0.748,2.21
			c-0.318-0.227-0.709-0.408-1.174-0.544c-0.465-0.136-0.924-0.204-1.377-0.204c-0.998,0-1.756,0.374-2.277,1.122
			c-0.521,0.748-0.781,1.836-0.781,3.264v0.476h4.725v2.346h-4.725v15.402H136.611z"/>
		<linearGradient id="SVGID_8_" gradientUnits="userSpaceOnUse" x1="0.5781" y1="14.6973" x2="255.5059" y2="14.6973">
			<stop  offset="0" style="stop-color:#4867C0"/>
			<stop  offset="1" style="stop-color:#329FEC"/>
		</linearGradient>
		<path fill="url(#SVGID_8_)" d="M155.174,27.447c-1.338,0-2.563-0.244-3.672-0.731c-1.111-0.487-2.063-1.149-2.855-1.989
			c-0.795-0.838-1.412-1.818-1.854-2.94s-0.664-2.306-0.664-3.554c0-1.246,0.223-2.425,0.664-3.536
			c0.441-1.11,1.064-2.085,1.869-2.924c0.805-0.838,1.764-1.501,2.873-1.989c1.111-0.487,2.334-0.731,3.672-0.731
			s2.557,0.25,3.656,0.748c1.1,0.499,2.033,1.162,2.805,1.989c0.77,0.828,1.365,1.791,1.785,2.89c0.418,1.1,0.629,2.238,0.629,3.417
			c0,0.249-0.006,0.475-0.018,0.68c-0.012,0.203-0.029,0.362-0.051,0.476h-14.723c0.068,0.884,0.273,1.688,0.613,2.414
			s0.781,1.349,1.326,1.87c0.543,0.521,1.16,0.93,1.852,1.224c0.691,0.295,1.424,0.442,2.193,0.442c0.545,0,1.076-0.074,1.598-0.221
			c0.521-0.147,1.01-0.346,1.463-0.596c0.453-0.249,0.855-0.555,1.207-0.918c0.352-0.362,0.617-0.77,0.799-1.224l2.584,0.714
			c-0.295,0.658-0.697,1.258-1.207,1.802s-1.1,1.015-1.768,1.411c-0.67,0.396-1.412,0.709-2.227,0.936
			C156.908,27.333,156.059,27.447,155.174,27.447z M161.26,17.043c-0.068-0.838-0.277-1.615-0.629-2.329s-0.793-1.32-1.326-1.819
			s-1.15-0.889-1.854-1.173c-0.703-0.283-1.451-0.425-2.244-0.425s-1.541,0.142-2.244,0.425c-0.701,0.284-1.32,0.68-1.852,1.19
			c-0.533,0.51-0.965,1.117-1.293,1.819c-0.328,0.703-0.527,1.474-0.594,2.312H161.26z"/>
		<linearGradient id="SVGID_9_" gradientUnits="userSpaceOnUse" x1="0.5781" y1="14.6973" x2="255.5059" y2="14.6973">
			<stop  offset="0" style="stop-color:#4867C0"/>
			<stop  offset="1" style="stop-color:#329FEC"/>
		</linearGradient>
		<path fill="url(#SVGID_9_)" d="M176.797,11.977c-1.496,0.045-2.816,0.431-3.961,1.156c-1.145,0.726-1.955,1.734-2.43,3.025v10.949
			h-2.992V9.359h2.787v4.114c0.613-1.224,1.416-2.215,2.414-2.975c0.998-0.759,2.063-1.184,3.195-1.275c0.227,0,0.42,0,0.578,0
			s0.295,0.012,0.408,0.034V11.977z"/>
		<linearGradient id="SVGID_10_" gradientUnits="userSpaceOnUse" x1="0.5781" y1="14.6973" x2="255.5059" y2="14.6973">
			<stop  offset="0" style="stop-color:#4867C0"/>
			<stop  offset="1" style="stop-color:#329FEC"/>
		</linearGradient>
		<path fill="url(#SVGID_10_)" d="M187.609,27.447c-1.338,0-2.563-0.244-3.672-0.731c-1.111-0.487-2.063-1.149-2.855-1.989
			c-0.795-0.838-1.412-1.818-1.854-2.94s-0.664-2.306-0.664-3.554c0-1.246,0.223-2.425,0.664-3.536
			c0.441-1.11,1.064-2.085,1.869-2.924c0.805-0.838,1.764-1.501,2.873-1.989c1.111-0.487,2.334-0.731,3.672-0.731
			s2.557,0.25,3.656,0.748c1.1,0.499,2.033,1.162,2.805,1.989c0.77,0.828,1.365,1.791,1.785,2.89c0.418,1.1,0.629,2.238,0.629,3.417
			c0,0.249-0.006,0.475-0.018,0.68c-0.012,0.203-0.029,0.362-0.051,0.476h-14.723c0.068,0.884,0.273,1.688,0.613,2.414
			s0.781,1.349,1.326,1.87c0.543,0.521,1.16,0.93,1.852,1.224c0.691,0.295,1.424,0.442,2.193,0.442c0.545,0,1.076-0.074,1.598-0.221
			c0.521-0.147,1.01-0.346,1.463-0.596c0.453-0.249,0.855-0.555,1.207-0.918c0.352-0.362,0.617-0.77,0.799-1.224l2.584,0.714
			c-0.295,0.658-0.697,1.258-1.207,1.802s-1.1,1.015-1.768,1.411c-0.67,0.396-1.412,0.709-2.227,0.936
			C189.344,27.333,188.494,27.447,187.609,27.447z M193.695,17.043c-0.068-0.838-0.277-1.615-0.629-2.329s-0.793-1.32-1.326-1.819
			s-1.15-0.889-1.854-1.173c-0.703-0.283-1.451-0.425-2.244-0.425s-1.541,0.142-2.244,0.425c-0.701,0.284-1.32,0.68-1.852,1.19
			c-0.533,0.51-0.965,1.117-1.293,1.819c-0.328,0.703-0.527,1.474-0.594,2.312H193.695z"/>
		<linearGradient id="SVGID_11_" gradientUnits="userSpaceOnUse" x1="0.5781" y1="14.6973" x2="255.5059" y2="14.6973">
			<stop  offset="0" style="stop-color:#4867C0"/>
			<stop  offset="1" style="stop-color:#329FEC"/>
		</linearGradient>
		<path fill="url(#SVGID_11_)" d="M215.252,27.107h-2.992v-9.929c0-1.904-0.289-3.286-0.867-4.148
			c-0.578-0.861-1.457-1.292-2.635-1.292c-0.613,0-1.225,0.119-1.836,0.357c-0.613,0.238-1.191,0.561-1.734,0.969
			c-0.545,0.408-1.02,0.896-1.428,1.462c-0.408,0.567-0.715,1.19-0.918,1.87v10.711h-2.992V9.359h2.719v3.808
			c0.703-1.247,1.717-2.244,3.043-2.992s2.771-1.122,4.336-1.122c1.02,0,1.869,0.187,2.549,0.561
			c0.682,0.374,1.225,0.896,1.633,1.564c0.408,0.669,0.697,1.457,0.867,2.363c0.17,0.907,0.256,1.893,0.256,2.958V27.107z"/>
		<linearGradient id="SVGID_12_" gradientUnits="userSpaceOnUse" x1="0.5781" y1="14.6973" x2="255.5059" y2="14.6973">
			<stop  offset="0" style="stop-color:#4867C0"/>
			<stop  offset="1" style="stop-color:#329FEC"/>
		</linearGradient>
		<path fill="url(#SVGID_12_)" d="M218.719,18.199c0-1.246,0.215-2.425,0.646-3.536c0.43-1.11,1.041-2.08,1.836-2.907
			c0.793-0.827,1.738-1.484,2.838-1.972c1.1-0.487,2.33-0.731,3.689-0.731c1.768,0,3.293,0.391,4.572,1.173
			c1.281,0.782,2.25,1.831,2.908,3.145l-2.924,0.918c-0.455-0.838-1.088-1.49-1.904-1.955c-0.816-0.464-1.723-0.697-2.721-0.697
			c-0.816,0-1.586,0.165-2.313,0.493c-0.725,0.329-1.348,0.788-1.869,1.377c-0.521,0.59-0.936,1.281-1.24,2.074
			c-0.307,0.794-0.459,1.666-0.459,2.618c0,0.93,0.158,1.802,0.475,2.617c0.318,0.816,0.742,1.525,1.275,2.125
			c0.533,0.602,1.156,1.071,1.871,1.412c0.713,0.34,1.479,0.51,2.295,0.51c0.52,0,1.037-0.074,1.547-0.221
			c0.51-0.148,0.975-0.346,1.393-0.596c0.42-0.249,0.789-0.538,1.105-0.867c0.318-0.328,0.545-0.686,0.68-1.07l2.924,0.884
			c-0.271,0.657-0.65,1.258-1.139,1.802c-0.486,0.544-1.059,1.009-1.717,1.395c-0.658,0.385-1.389,0.691-2.193,0.918
			c-0.805,0.226-1.648,0.34-2.533,0.34c-1.336,0-2.561-0.25-3.672-0.748c-1.109-0.498-2.063-1.168-2.855-2.006
			c-0.793-0.839-1.41-1.819-1.854-2.941C218.939,20.63,218.719,19.445,218.719,18.199z"/>
		<linearGradient id="SVGID_13_" gradientUnits="userSpaceOnUse" x1="0.5781" y1="14.6973" x2="255.5059" y2="14.6973">
			<stop  offset="0" style="stop-color:#4867C0"/>
			<stop  offset="1" style="stop-color:#329FEC"/>
		</linearGradient>
		<path fill="url(#SVGID_13_)" d="M246.598,27.447c-1.336,0-2.561-0.244-3.672-0.731c-1.109-0.487-2.063-1.149-2.855-1.989
			c-0.793-0.838-1.41-1.818-1.854-2.94c-0.441-1.122-0.662-2.306-0.662-3.554c0-1.246,0.221-2.425,0.662-3.536
			c0.443-1.11,1.066-2.085,1.871-2.924c0.805-0.838,1.762-1.501,2.873-1.989c1.109-0.487,2.334-0.731,3.672-0.731
			c1.336,0,2.555,0.25,3.654,0.748c1.1,0.499,2.035,1.162,2.805,1.989c0.771,0.828,1.365,1.791,1.785,2.89s0.629,2.238,0.629,3.417
			c0,0.249-0.006,0.475-0.016,0.68c-0.012,0.203-0.029,0.362-0.051,0.476h-14.723c0.068,0.884,0.271,1.688,0.611,2.414
			s0.783,1.349,1.326,1.87c0.545,0.521,1.162,0.93,1.854,1.224c0.691,0.295,1.422,0.442,2.193,0.442
			c0.543,0,1.076-0.074,1.598-0.221c0.521-0.147,1.008-0.346,1.461-0.596c0.453-0.249,0.855-0.555,1.207-0.918
			c0.352-0.362,0.617-0.77,0.799-1.224l2.584,0.714c-0.293,0.658-0.695,1.258-1.205,1.802c-0.512,0.544-1.102,1.015-1.77,1.411
			s-1.41,0.709-2.227,0.936C248.332,27.333,247.482,27.447,246.598,27.447z M252.684,17.043c-0.066-0.838-0.277-1.615-0.629-2.329
			s-0.793-1.32-1.324-1.819c-0.533-0.499-1.152-0.889-1.854-1.173c-0.703-0.283-1.451-0.425-2.244-0.425s-1.541,0.142-2.244,0.425
			c-0.703,0.284-1.32,0.68-1.854,1.19c-0.533,0.51-0.963,1.117-1.291,1.819c-0.33,0.703-0.527,1.474-0.596,2.312H252.684z"/>
	</g>
</g>
</svg>
